{
    "asset" : {
        "copyright" : "Copyright (C) 2021 Logan Bier. All rights reserved.",
        "generator" : "Khronos glTF Blender I/O v1.5.17",
        "version" : "2.0"
    },
    "scene" : 0,
    "scenes" : [
        {
            "extras" : {
                "glTF2ExportSettings" : {
                    "export_copyright" : "Copyright (C) 2021 Logan Bier. All rights reserved.",
                    "export_extras" : 1,
                    "export_format" : "GLTF_EMBEDDED",
                    "use_selection" : 1
                }
            },
            "name" : "Scene",
            "nodes" : [
                0
            ]
        }
    ],
    "nodes" : [
        {
            "mesh" : 0,
            "name" : "arena"
        }
    ],
    "materials" : [
        {
            "name" : "Material.001",
            "pbrMetallicRoughness" : {
                "baseColorFactor" : [
                    0.510093092918396,
                    0.7095975875854492,
                    0.8000000715255737,
                    1
                ],
                "roughnessFactor" : 0.43939393758773804
            }
        }
    ],
    "meshes" : [
        {
            "name" : "Cube.001",
            "primitives" : [
                {
                    "attributes" : {
                        "POSITION" : 0,
                        "NORMAL" : 1,
                        "TEXCOORD_0" : 2
                    },
                    "indices" : 3,
                    "material" : 0
                }
            ]
        }
    ],
    "accessors" : [
        {
            "bufferView" : 0,
            "componentType" : 5126,
            "count" : 729,
            "max" : [
                100,
                8.12381362915039,
                100
            ],
            "min" : [
                -100,
                -1,
                -100
            ],
            "type" : "VEC3"
        },
        {
            "bufferView" : 1,
            "componentType" : 5126,
            "count" : 729,
            "type" : "VEC3"
        },
        {
            "bufferView" : 2,
            "componentType" : 5126,
            "count" : 729,
            "type" : "VEC2"
        },
        {
            "bufferView" : 3,
            "componentType" : 5123,
            "count" : 3432,
            "type" : "SCALAR"
        }
    ],
    "bufferViews" : [
        {
            "buffer" : 0,
            "byteLength" : 8748,
            "byteOffset" : 0
        },
        {
            "buffer" : 0,
            "byteLength" : 8748,
            "byteOffset" : 8748
        },
        {
            "buffer" : 0,
            "byteLength" : 5832,
            "byteOffset" : 17496
        },
        {
            "buffer" : 0,
            "byteLength" : 6864,
            "byteOffset" : 23328
        }
    ],
    "buffers" : [
        {
            "byteLength" : 30192,
            "uri" : "data:application/octet-stream;base64,"
        }
    ]
}
