{
    "asset" : {
        "copyright" : "Copyright (C) 2021 Logan Bier. All rights reserved.",
        "generator" : "Khronos glTF Blender I/O v1.5.17",
        "version" : "2.0"
    },
    "scene" : 0,
    "scenes" : [
        {
            "extras" : {
                "glTF2ExportSettings" : {
                    "export_copyright" : "Copyright (C) 2021 Logan Bier. All rights reserved.",
                    "export_extras" : 1,
                    "export_format" : "GLTF_EMBEDDED",
                    "use_selection" : 1
                }
            },
            "name" : "Scene",
            "nodes" : [
                0
            ]
        }
    ],
    "nodes" : [
        {
            "mesh" : 0,
            "name" : "Cube",
            "scale" : [
                0.020000003278255463,
                0.020000003278255463,
                0.020000003278255463
            ],
            "translation" : [
                0,
                0,
                0.03921215236186981
            ]
        }
    ],
    "materials" : [
        {
            "name" : "Material.001",
            "pbrMetallicRoughness" : {
                "baseColorFactor" : [
                    0.2597988247871399,
                    0.2597988247871399,
                    0.2597988247871399,
                    1
                ],
                "roughnessFactor" : 0.4040403962135315
            }
        }
    ],
    "meshes" : [
        {
            "name" : "Cube",
            "primitives" : [
                {
                    "attributes" : {
                        "POSITION" : 0,
                        "NORMAL" : 1,
                        "TEXCOORD_0" : 2
                    },
                    "indices" : 3,
                    "material" : 0
                }
            ]
        }
    ],
    "accessors" : [
        {
            "bufferView" : 0,
            "componentType" : 5126,
            "count" : 7003,
            "max" : [
                1.2542644739151,
                1.4311504364013672,
                1.5883474349975586
            ],
            "min" : [
                -1.271132469177246,
                -5.089593887329102,
                -7.893265724182129
            ],
            "type" : "VEC3"
        },
        {
            "bufferView" : 1,
            "componentType" : 5126,
            "count" : 7003,
            "type" : "VEC3"
        },
        {
            "bufferView" : 2,
            "componentType" : 5126,
            "count" : 7003,
            "type" : "VEC2"
        },
        {
            "bufferView" : 3,
            "componentType" : 5123,
            "count" : 10983,
            "type" : "SCALAR"
        }
    ],
    "bufferViews" : [
        {
            "buffer" : 0,
            "byteLength" : 84036,
            "byteOffset" : 0
        },
        {
            "buffer" : 0,
            "byteLength" : 84036,
            "byteOffset" : 84036
        },
        {
            "buffer" : 0,
            "byteLength" : 56024,
            "byteOffset" : 168072
        },
        {
            "buffer" : 0,
            "byteLength" : 21966,
            "byteOffset" : 224096
        }
    ],
    "buffers" : [
        {
            "byteLength" : 246064,
            "uri" : "data:application/octet-stream;base64,"
        }
    ]
}
