{
    "asset" : {
        "copyright" : "Copyright (C) 2021 Logan Bier. All rights reserved.",
        "generator" : "Khronos glTF Blender I/O v1.5.17",
        "version" : "2.0"
    },
    "scene" : 0,
    "scenes" : [
        {
            "extras" : {
                "glTF2ExportSettings" : {
                    "export_copyright" : "Copyright (C) 2021 Logan Bier. All rights reserved.",
                    "export_extras" : 1,
                    "export_format" : "GLTF_EMBEDDED",
                    "use_selection" : 1
                }
            },
            "name" : "Scene",
            "nodes" : [
                0,
                1,
                2
            ]
        }
    ],
    "nodes" : [
        {
            "mesh" : 0,
            "name" : "Cube",
            "translation" : [
                0,
                0.9765977263450623,
                0
            ]
        },
        {
            "name" : "Light",
            "rotation" : [
                0.16907575726509094,
                0.7558803558349609,
                -0.27217137813568115,
                0.570947527885437
            ],
            "translation" : [
                17.078989028930664,
                11.44180679321289,
                -1.0054539442062378
            ]
        },
        {
            "name" : "Camera",
            "rotation" : [
                0.483536034822464,
                0.33687159419059753,
                -0.20870360732078552,
                0.7804827094078064
            ],
            "translation" : [
                7.358891487121582,
                4.958309173583984,
                6.925790786743164
            ]
        }
    ],
    "materials" : [
        {
            "name" : "Material",
            "pbrMetallicRoughness" : {
                "baseColorFactor" : [
                    0.29757627844810486,
                    0,
                    0.8000000715255737,
                    1
                ],
                "roughnessFactor" : 0.30404043197631836
            }
        }
    ],
    "meshes" : [
        {
            "name" : "Cube",
            "primitives" : [
                {
                    "attributes" : {
                        "POSITION" : 0,
                        "NORMAL" : 1,
                        "TEXCOORD_0" : 2
                    },
                    "indices" : 3,
                    "material" : 0
                }
            ]
        }
    ],
    "accessors" : [
        {
            "bufferView" : 0,
            "componentType" : 5126,
            "count" : 2984,
            "max" : [
                1,
                1,
                1
            ],
            "min" : [
                -1,
                -1,
                -5.435087203979492
            ],
            "type" : "VEC3"
        },
        {
            "bufferView" : 1,
            "componentType" : 5126,
            "count" : 2984,
            "type" : "VEC3"
        },
        {
            "bufferView" : 2,
            "componentType" : 5126,
            "count" : 2984,
            "type" : "VEC2"
        },
        {
            "bufferView" : 3,
            "componentType" : 5123,
            "count" : 4596,
            "type" : "SCALAR"
        }
    ],
    "bufferViews" : [
        {
            "buffer" : 0,
            "byteLength" : 35808,
            "byteOffset" : 0
        },
        {
            "buffer" : 0,
            "byteLength" : 35808,
            "byteOffset" : 35808
        },
        {
            "buffer" : 0,
            "byteLength" : 23872,
            "byteOffset" : 71616
        },
        {
            "buffer" : 0,
            "byteLength" : 9192,
            "byteOffset" : 95488
        }
    ],
    "buffers" : [
        {
            "byteLength" : 104680,
            "uri" : "data:application/octet-stream;base64,"
        }
    ]
}
